<svg xmlns="http://www.w3.org/2000/svg" width="296" viewBox="0 0 296 41" fill="none"><path d="M2.112 26V2.16H18.432V6.48H7.072V12.528H16.832V16.848H7.072V26H2.112ZM20.8932 26V2.16H37.2133V6.48H25.8533V12.528H35.6133V16.848H25.8533V26H20.8932ZM39.6745 26V2.16H44.6345V21.68H54.7145V26H39.6745ZM74.2525 26.384C72.5458 26.384 70.9565 26.0747 69.4845 25.456C68.0338 24.8373 66.7645 23.9733 65.6765 22.864C64.5885 21.7547 63.7352 20.4533 63.1165 18.96C62.5192 17.4667 62.2205 15.8347 62.2205 14.064C62.2205 12.2933 62.5192 10.6613 63.1165 9.168C63.7138 7.65333 64.5565 6.352 65.6445 5.264C66.7325 4.15467 68.0018 3.30133 69.4525 2.704C70.9245 2.08533 72.5245 1.776 74.2525 1.776C75.9805 1.776 77.5272 2.064 78.8925 2.64C80.2792 3.216 81.4525 3.984 82.4125 4.944C83.3725 5.904 84.0552 6.97067 84.4605 8.144L80.0765 10.256C79.6712 9.104 78.9565 8.15467 77.9325 7.408C76.9298 6.64 75.7032 6.256 74.2525 6.256C72.8445 6.256 71.6072 6.58667 70.5405 7.248C69.4738 7.90933 68.6418 8.82667 68.0445 10C67.4685 11.152 67.1805 12.5067 67.1805 14.064C67.1805 15.6213 67.4685 16.9867 68.0445 18.16C68.6418 19.3333 69.4738 20.2507 70.5405 20.912C71.6072 21.5733 72.8445 21.904 74.2525 21.904C75.7032 21.904 76.9298 21.5307 77.9325 20.784C78.9565 20.016 79.6712 19.056 80.0765 17.904L84.4605 20.016C84.0552 21.1893 83.3725 22.256 82.4125 23.216C81.4525 24.176 80.2792 24.944 78.8925 25.52C77.5272 26.096 75.9805 26.384 74.2525 26.384ZM95.6508 26.384C93.9228 26.384 92.3441 25.9893 90.9148 25.2C89.5068 24.4107 88.3761 23.3333 87.5228 21.968C86.6908 20.5813 86.2747 19.0133 86.2747 17.264C86.2747 15.4933 86.6908 13.9253 87.5228 12.56C88.3761 11.1947 89.5068 10.1173 90.9148 9.328C92.3441 8.53867 93.9228 8.144 95.6508 8.144C97.3788 8.144 98.9468 8.53867 100.355 9.328C101.763 10.1173 102.883 11.1947 103.715 12.56C104.568 13.9253 104.995 15.4933 104.995 17.264C104.995 19.0133 104.568 20.5813 103.715 21.968C102.883 23.3333 101.763 24.4107 100.355 25.2C98.9468 25.9893 97.3788 26.384 95.6508 26.384ZM95.6508 22.064C96.5254 22.064 97.2828 21.8613 97.9228 21.456C98.5841 21.0507 99.0961 20.4853 99.4588 19.76C99.8428 19.0347 100.035 18.2027 100.035 17.264C100.035 16.3253 99.8428 15.504 99.4588 14.8C99.0961 14.0747 98.5841 13.5093 97.9228 13.104C97.2828 12.6773 96.5254 12.464 95.6508 12.464C94.7761 12.464 94.0081 12.6773 93.3468 13.104C92.6854 13.5093 92.1628 14.0747 91.7788 14.8C91.4161 15.504 91.2348 16.3253 91.2348 17.264C91.2348 18.2027 91.4161 19.0347 91.7788 19.76C92.1628 20.4853 92.6854 21.0507 93.3468 21.456C94.0081 21.8613 94.7761 22.064 95.6508 22.064ZM116.399 26.384C114.649 26.384 113.071 25.9893 111.663 25.2C110.276 24.3893 109.167 23.2907 108.335 21.904C107.524 20.5173 107.118 18.96 107.118 17.232C107.118 15.504 107.524 13.9573 108.335 12.592C109.145 11.2053 110.255 10.1173 111.663 9.328C113.071 8.53867 114.649 8.144 116.399 8.144C117.7 8.144 118.905 8.368 120.015 8.816C121.124 9.264 122.073 9.89333 122.863 10.704C123.652 11.4933 124.217 12.432 124.559 13.52L120.399 15.312C120.1 14.4373 119.588 13.744 118.863 13.232C118.159 12.72 117.337 12.464 116.399 12.464C115.567 12.464 114.82 12.6667 114.159 13.072C113.519 13.4773 113.007 14.0427 112.623 14.768C112.26 15.4933 112.079 16.3253 112.079 17.264C112.079 18.2027 112.26 19.0347 112.623 19.76C113.007 20.4853 113.519 21.0507 114.159 21.456C114.82 21.8613 115.567 22.064 116.399 22.064C117.359 22.064 118.191 21.808 118.895 21.296C119.599 20.784 120.1 20.0907 120.399 19.216L124.559 21.04C124.239 22.064 123.684 22.9813 122.895 23.792C122.105 24.6027 121.156 25.2427 120.047 25.712C118.937 26.16 117.721 26.384 116.399 26.384ZM127.385 26V1.776H132.185V17.296L130.393 16.72L138.105 8.528H144.025L137.689 15.568L143.993 26H138.553L133.273 17.136L136.057 16.432L130.713 22.256L132.185 19.472V26H127.385ZM146.135 32.4V8.528H150.615V11.856L150.199 10.896C150.775 10.0213 151.554 9.34933 152.535 8.88C153.538 8.38933 154.679 8.144 155.959 8.144C157.623 8.144 159.127 8.54933 160.471 9.36C161.815 10.1707 162.882 11.2693 163.671 12.656C164.46 14.0213 164.855 15.5573 164.855 17.264C164.855 18.9493 164.46 20.4853 163.671 21.872C162.903 23.2587 161.847 24.3573 160.503 25.168C159.159 25.9787 157.634 26.384 155.927 26.384C154.732 26.384 153.623 26.1707 152.599 25.744C151.596 25.296 150.786 24.6453 150.167 23.792L150.935 22.8V32.4H146.135ZM155.351 22.064C156.247 22.064 157.036 21.8613 157.719 21.456C158.402 21.0507 158.935 20.4853 159.319 19.76C159.703 19.0347 159.895 18.2027 159.895 17.264C159.895 16.3253 159.703 15.504 159.319 14.8C158.935 14.0747 158.402 13.5093 157.719 13.104C157.036 12.6773 156.247 12.464 155.351 12.464C154.498 12.464 153.73 12.6667 153.047 13.072C152.386 13.4773 151.863 14.0427 151.479 14.768C151.116 15.4933 150.935 16.3253 150.935 17.264C150.935 18.2027 151.116 19.0347 151.479 19.76C151.863 20.4853 152.386 21.0507 153.047 21.456C153.73 21.8613 154.498 22.064 155.351 22.064ZM167.666 26V8.528H172.466V26H167.666ZM167.666 6.96V2.16H172.466V6.96H167.666ZM184.395 26.192C182.283 26.192 180.64 25.6267 179.467 24.496C178.315 23.344 177.739 21.744 177.739 19.696V12.688H174.795V8.528H174.955C175.851 8.528 176.533 8.304 177.003 7.856C177.493 7.408 177.739 6.736 177.739 5.84V4.56H182.539V8.528H186.635V12.688H182.539V19.376C182.539 19.9733 182.645 20.4747 182.859 20.88C183.072 21.264 183.403 21.552 183.851 21.744C184.299 21.936 184.853 22.032 185.515 22.032C185.664 22.032 185.835 22.0213 186.027 22C186.219 21.9787 186.421 21.9573 186.635 21.936V26C186.315 26.0427 185.952 26.0853 185.547 26.128C185.141 26.1707 184.757 26.192 184.395 26.192Z" fill="black"></path><line x1="2" y1="34" x2="139" y2="34" stroke="#00FE48" stroke-width="4" stroke-linecap="round"></line><line x1="156" y1="34" x2="185" y2="34" stroke="#00FE48" stroke-width="4" stroke-linecap="round"></line></svg>